<svg width="32" height="32" viewBox="0 0 32 32" fill="none" xmlns="http://www.w3.org/2000/svg">
<path d="M13.8864 16.4177C14.3168 15.4719 14.9293 14.6202 15.6889 13.9112C16.4485 13.2022 17.3403 12.6498 18.3135 12.2855C19.2866 11.9212 20.322 11.7522 21.3605 11.7882C22.3989 11.8241 23.4201 12.0643 24.3658 12.495C25.3115 12.9254 26.1632 13.5379 26.8722 14.2975C27.5813 15.0571 28.1337 15.9489 28.4979 16.9221C28.8622 17.8952 29.0312 18.9306 28.9953 19.9691C28.9593 21.0075 28.7192 22.0287 28.2885 22.9744C27.6617 24.3581 26.6488 25.5315 25.3714 26.3537C24.0941 27.1759 22.6065 27.6119 21.0874 27.6093C18.0352 27.6093 15.2429 25.8458 13.9316 23.0874H3V20.8265C3.06783 19.5378 3.94959 18.4864 5.64528 17.6386C7.34098 16.7907 9.46625 16.3499 12.0437 16.3046C12.6881 16.3046 13.2985 16.3612 13.8864 16.4177ZM12.0437 5C13.3098 5.03391 14.3725 5.47479 15.2203 6.32264C16.0682 7.17049 16.4864 8.23313 16.4864 9.52185C16.4864 10.8106 16.0682 11.8732 15.2203 12.7211C14.3725 13.5689 13.3098 13.9872 12.0437 13.9872C10.7776 13.9872 9.71495 13.5689 8.86711 12.7211C8.01926 11.8732 7.60099 10.8106 7.60099 9.52185C7.60099 8.23313 8.01926 7.17049 8.86711 6.32264C9.71495 5.47479 10.7776 5.03391 12.0437 5ZM21.0874 25.3483C22.5865 25.3483 24.0242 24.7528 25.0842 23.6928C26.1442 22.6328 26.7397 21.1951 26.7397 19.696C26.7397 18.1969 26.1442 16.7593 25.0842 15.6992C24.0242 14.6392 22.5865 14.0437 21.0874 14.0437C19.5883 14.0437 18.1506 14.6392 17.0906 15.6992C16.0306 16.7593 15.4351 18.1969 15.4351 19.696C15.4351 21.1951 16.0306 22.6328 17.0906 23.6928C18.1506 24.7528 19.5883 25.3483 21.0874 25.3483ZM19.957 16.3046H21.6527V19.4925L24.411 21.0865L23.5631 22.5561L19.957 20.476V16.3046Z" fill="#333333"/>
</svg>
