<svg width="32" height="32" viewBox="0 0 32 32" fill="none" xmlns="http://www.w3.org/2000/svg">
<path d="M11.9149 18.7233C15.5506 18.7233 22.8085 20.5344 22.8085 24.1702V26.8936H1.02125V24.1702C1.02125 20.5344 8.27912 18.7233 11.9149 18.7233ZM24.1702 13.2765V9.19143H26.8936V13.2765H30.9787V15.9999H26.8936V20.085H24.1702V15.9999H20.0851V13.2765H24.1702ZM11.9149 15.9999C10.4703 15.9999 9.08487 15.4261 8.06339 14.4046C7.04192 13.3831 6.46806 11.9977 6.46806 10.5531C6.46806 9.10855 7.04192 7.72313 8.06339 6.70166C9.08487 5.68018 10.4703 5.10632 11.9149 5.10632C13.3595 5.10632 14.7449 5.68018 15.7663 6.70166C16.7878 7.72313 17.3617 9.10855 17.3617 10.5531C17.3617 11.9977 16.7878 13.3831 15.7663 14.4046C14.7449 15.4261 13.3595 15.9999 11.9149 15.9999Z" fill="white" fill-opacity="0.87"/>
</svg>
