<svg width="32" height="32" viewBox="0 0 32 32" fill="none" xmlns="http://www.w3.org/2000/svg">
<path d="M28.1333 16.6666L30 18.5466L21.2933 27.3333L16.6667 22.6666L18.5333 20.7866L21.2933 23.56L28.1333 16.6666ZM13.3333 22.6666L17.3333 26.6666H4V24C4 21.0533 8.77333 18.6666 14.6667 18.6666L17.1867 18.8133L13.3333 22.6666ZM14.6667 5.33331C16.0812 5.33331 17.4377 5.89522 18.4379 6.89541C19.4381 7.8956 20 9.25216 20 10.6666C20 12.0811 19.4381 13.4377 18.4379 14.4379C17.4377 15.4381 16.0812 16 14.6667 16C13.2522 16 11.8956 15.4381 10.8954 14.4379C9.89524 13.4377 9.33333 12.0811 9.33333 10.6666C9.33333 9.25216 9.89524 7.8956 10.8954 6.89541C11.8956 5.89522 13.2522 5.33331 14.6667 5.33331Z" fill="white" fill-opacity="0.87"/>
</svg>
