<svg width="32" height="32" viewBox="0 0 32 32" fill="none" xmlns="http://www.w3.org/2000/svg">
<path d="M28.7707 17.6133L27.3147 19.0693L24.33 16.0846L25.7859 14.6286C25.9356 14.4819 26.1369 14.3997 26.3465 14.3997C26.5561 14.3997 26.7574 14.4819 26.907 14.6286L28.7707 16.4922C29.0764 16.798 29.0764 17.3076 28.7707 17.6133ZM14.6478 25.7522L23.4709 16.929L26.4557 19.9138L17.6471 28.7515H14.6478V25.7522ZM14.6478 18.5597C8.21238 18.5597 3 21.1659 3 24.3836V27.2955H11.7358V24.5438L17.5597 18.7199C16.5988 18.6034 15.6233 18.5597 14.6478 18.5597ZM14.6478 4C13.1032 4 11.6218 4.61359 10.5297 5.70578C9.43747 6.79797 8.82388 8.27929 8.82388 9.82388C8.82388 11.3685 9.43747 12.8498 10.5297 13.942C11.6218 15.0342 13.1032 15.6478 14.6478 15.6478C16.1924 15.6478 17.6737 15.0342 18.7659 13.942C19.8581 12.8498 20.4717 11.3685 20.4717 9.82388C20.4717 8.27929 19.8581 6.79797 18.7659 5.70578C17.6737 4.61359 16.1924 4 14.6478 4Z" fill="white" fill-opacity="0.87"/>
</svg>
